<svg width="81" height="81" viewBox="0 0 81 81" fill="none" xmlns="http://www.w3.org/2000/svg">
<path d="M10.125 26.325C10.125 20.6545 10.125 17.8192 11.2286 15.6533C12.1993 13.7482 13.7482 12.1993 15.6533 11.2286C17.8192 10.125 20.6545 10.125 26.325 10.125H54.675C60.3455 10.125 63.1808 10.125 65.3467 11.2286C67.2518 12.1993 68.8007 13.7482 69.7714 15.6533C70.875 17.8192 70.875 20.6545 70.875 26.325V54.675C70.875 60.3455 70.875 63.1808 69.7714 65.3467C68.8007 67.2518 67.2518 68.8007 65.3467 69.7714C63.1808 70.875 60.3455 70.875 54.675 70.875H26.325C20.6545 70.875 17.8192 70.875 15.6533 69.7714C13.7482 68.8007 12.1993 67.2518 11.2286 65.3467C10.125 63.1808 10.125 60.3455 10.125 54.675V26.325Z" stroke="#302C44" stroke-width="2" stroke-linecap="round" stroke-linejoin="round"/>
</svg>
