<svg width="81" height="81" viewBox="0 0 81 81" fill="none" xmlns="http://www.w3.org/2000/svg">
<path d="M48.9375 18.5625L54 23.625M38.8125 28.6875L43.875 33.75M28.6875 38.8125L33.75 43.875M18.5625 48.9375L23.625 54M8.65905 59.2843L21.7157 72.3409C22.384 73.0092 22.7181 73.3434 23.1034 73.4685C23.4423 73.5787 23.8074 73.5787 24.1463 73.4685C24.5316 73.3434 24.8658 73.0092 25.5341 72.3409L72.3407 25.5343C73.009 24.866 73.3431 24.5319 73.4683 24.1466C73.5784 23.8077 73.5784 23.4426 73.4683 23.1037C73.3431 22.7184 73.009 22.3842 72.3407 21.7159L59.2841 8.65931C58.6158 7.99104 58.2816 7.6569 57.8963 7.5317C57.5574 7.42158 57.1923 7.42158 56.8534 7.5317C56.4681 7.6569 56.134 7.99104 55.4657 8.65931L8.65906 55.4659C7.99078 56.1342 7.65664 56.4684 7.53144 56.8537C7.42132 57.1926 7.42132 57.5577 7.53144 57.8966C7.65664 58.2819 7.99078 58.616 8.65905 59.2843Z" stroke="#302C44" stroke-width="2" stroke-linecap="round" stroke-linejoin="round"/>
</svg>
