<svg width="81" height="81" viewBox="0 0 81 81" fill="none" xmlns="http://www.w3.org/2000/svg">
<path d="M43.875 16.875C43.875 20.6029 35.5643 23.625 25.3125 23.625C15.0607 23.625 6.75 20.6029 6.75 16.875M43.875 16.875C43.875 13.1471 35.5643 10.125 25.3125 10.125C15.0607 10.125 6.75 13.1471 6.75 16.875M43.875 16.875V31.9179C39.7524 33.1559 37.125 35.0289 37.125 37.125M6.75 16.875V57.375C6.75 61.1029 15.0607 64.125 25.3125 64.125C29.8 64.125 33.9156 63.546 37.125 62.5821V37.125M6.75 30.375C6.75 34.1029 15.0607 37.125 25.3125 37.125C29.8 37.125 33.9156 36.546 37.125 35.5821M6.75 43.875C6.75 47.6029 15.0607 50.625 25.3125 50.625C29.8 50.625 33.9156 50.046 37.125 49.0821M74.25 37.125C74.25 40.8529 65.9393 43.875 55.6875 43.875C45.4357 43.875 37.125 40.8529 37.125 37.125M74.25 37.125C74.25 33.3971 65.9393 30.375 55.6875 30.375C45.4357 30.375 37.125 33.3971 37.125 37.125M74.25 37.125V64.125C74.25 67.8529 65.9393 70.875 55.6875 70.875C45.4357 70.875 37.125 67.8529 37.125 64.125V37.125M74.25 50.625C74.25 54.3529 65.9393 57.375 55.6875 57.375C45.4357 57.375 37.125 54.3529 37.125 50.625" stroke="#302C44" stroke-width="2" stroke-linecap="round" stroke-linejoin="round"/>
</svg>
