<svg width="81" height="81" viewBox="0 0 81 81" fill="none" xmlns="http://www.w3.org/2000/svg">
<path d="M8.4391 43.875H28.6891M52.3141 43.875H72.5641M40.5016 23.625V70.875M40.5016 23.625C45.1615 23.625 48.9391 19.8474 48.9391 15.1875M40.5016 23.625C35.8417 23.625 32.0641 19.8474 32.0641 15.1875M13.5016 70.875L67.5016 70.875M13.5016 15.1875L32.0641 15.1875M32.0641 15.1875C32.0641 10.5276 35.8417 6.75 40.5016 6.75C45.1615 6.75 48.9391 10.5276 48.9391 15.1875M48.9391 15.1875L67.5016 15.1875M29.9731 48.3852C28.6207 53.5632 24.0252 57.375 18.5641 57.375C13.103 57.375 8.50746 53.5632 7.15512 48.3852C7.04463 47.9621 6.98938 47.7506 6.98405 46.9053C6.98078 46.3872 7.17335 45.1925 7.33924 44.7016C7.60988 43.9008 7.90284 43.4488 8.48875 42.5448L18.5641 27L28.6395 42.5448C29.2254 43.4488 29.5183 43.9008 29.789 44.7016C29.9549 45.1925 30.1474 46.3872 30.1442 46.9053C30.1388 47.7506 30.0836 47.9621 29.9731 48.3852ZM73.8481 48.3852C72.4957 53.5632 67.9002 57.375 62.4391 57.375C56.978 57.375 52.3825 53.5632 51.0301 48.3852C50.9196 47.9621 50.8644 47.7506 50.8591 46.9053C50.8558 46.3872 51.0483 45.1925 51.2142 44.7016C51.4849 43.9008 51.7778 43.4488 52.3638 42.5448L62.4391 27L72.5145 42.5448C73.1004 43.4488 73.3933 43.9008 73.664 44.7016C73.8299 45.1925 74.0224 46.3872 74.0192 46.9053C74.0138 47.7506 73.9586 47.9621 73.8481 48.3852Z" stroke="#302C44" stroke-width="2" stroke-linecap="round" stroke-linejoin="round"/>
</svg>
