<svg width="81" height="81" viewBox="0 0 81 81" fill="none" xmlns="http://www.w3.org/2000/svg">
<path d="M48.9375 15.1875C48.9375 10.5276 45.1599 6.75 40.5 6.75C35.8401 6.75 32.0625 10.5276 32.0625 15.1875V46.4325C27.9923 49.157 25.3125 53.7968 25.3125 59.0625C25.3125 67.4503 32.1122 74.25 40.5 74.25C48.8878 74.25 55.6875 67.4503 55.6875 59.0625C55.6875 53.7968 53.0077 49.157 48.9375 46.4325V15.1875Z" stroke="#302C44" stroke-width="2" stroke-linecap="round" stroke-linejoin="round"/>
<path d="M40.5 62.4375C42.364 62.4375 43.875 60.9265 43.875 59.0625C43.875 57.1985 42.364 55.6875 40.5 55.6875C38.636 55.6875 37.125 57.1985 37.125 59.0625C37.125 60.9265 38.636 62.4375 40.5 62.4375Z" stroke="#302C44" stroke-width="2" stroke-linecap="round" stroke-linejoin="round"/>
</svg>
