<svg width="81" height="81" viewBox="0 0 81 81" fill="none" xmlns="http://www.w3.org/2000/svg">
<path d="M47.25 23.625H55.1382C55.9637 23.625 56.3765 23.625 56.7649 23.7183C57.1093 23.8009 57.4385 23.9373 57.7405 24.1223C58.0811 24.3311 58.3729 24.6229 58.9566 25.2066L72.6684 38.9184C73.2521 39.5021 73.5439 39.7939 73.7527 40.1345C73.9377 40.4365 74.0741 40.7657 74.1567 41.1101C74.25 41.4985 74.25 41.9113 74.25 42.7368V52.3125C74.25 53.8851 74.25 54.6713 73.9931 55.2916C73.6506 56.1185 72.9935 56.7756 72.1666 57.1181C71.5463 57.375 70.7601 57.375 69.1875 57.375M52.3125 57.375H47.25M47.25 57.375V24.3C47.25 20.5196 47.25 18.6295 46.5143 17.1856C45.8671 15.9155 44.8345 14.8829 43.5644 14.2357C42.1205 13.5 40.2304 13.5 36.45 13.5H17.55C13.7696 13.5 11.8795 13.5 10.4356 14.2357C9.16547 14.8829 8.13285 15.9155 7.48571 17.1856C6.75 18.6295 6.75 20.5196 6.75 24.3V50.625C6.75 54.3529 9.77208 57.375 13.5 57.375M47.25 57.375H33.75M33.75 57.375C33.75 62.9669 29.2169 67.5 23.625 67.5C18.0331 67.5 13.5 62.9669 13.5 57.375M33.75 57.375C33.75 51.7831 29.2169 47.25 23.625 47.25C18.0331 47.25 13.5 51.7831 13.5 57.375M69.1875 59.0625C69.1875 63.7224 65.4099 67.5 60.75 67.5C56.0901 67.5 52.3125 63.7224 52.3125 59.0625C52.3125 54.4026 56.0901 50.625 60.75 50.625C65.4099 50.625 69.1875 54.4026 69.1875 59.0625Z" stroke="#302C44" stroke-width="2" stroke-linecap="round" stroke-linejoin="round"/>
</svg>
