<svg width="81" height="81" viewBox="0 0 81 81" fill="none" xmlns="http://www.w3.org/2000/svg">
<path d="M11.8125 27H54M54 27V69.1875M54 27L69.1875 11.8125M70.875 51.7632V12.825C70.875 11.8799 70.875 11.4074 70.6911 11.0464C70.5293 10.7289 70.2711 10.4707 69.9536 10.3089C69.5926 10.125 69.1201 10.125 68.175 10.125H29.2368C28.4113 10.125 27.9985 10.125 27.6101 10.2183C27.2657 10.3009 26.9365 10.4373 26.6345 10.6223C26.2939 10.8311 26.0021 11.1229 25.4184 11.7066L11.7066 25.4184C11.1229 26.0021 10.8311 26.2939 10.6223 26.6345C10.4373 26.9365 10.3009 27.2657 10.2183 27.6101C10.125 27.9985 10.125 28.4113 10.125 29.2368V68.175C10.125 69.1201 10.125 69.5926 10.3089 69.9536C10.4707 70.2711 10.7289 70.5293 11.0464 70.6911C11.4074 70.875 11.8799 70.875 12.825 70.875H51.7632C52.5887 70.875 53.0015 70.875 53.3899 70.7817C53.7343 70.6991 54.0635 70.5627 54.3655 70.3777C54.7061 70.1689 54.9979 69.8771 55.5816 69.2934L69.2934 55.5816C69.8771 54.9979 70.1689 54.7061 70.3777 54.3655C70.5627 54.0635 70.6991 53.7343 70.7817 53.3899C70.875 53.0015 70.875 52.5887 70.875 51.7632Z" stroke="#302C44" stroke-width="2" stroke-linecap="round" stroke-linejoin="round"/>
</svg>
